# xmcd
#
# Track frame offsets:
# 150
# 20187
# 39119
# 51484
# 73187
# 84987
# 103070
# 121355
# 138179
# 152261
# 168830
# 185981
# 203804
# 220795
#
# Disc length: 3209 seconds
#
# Revision: 0
# Processed by: cddbd v1.4PL0 Copyright (c) Steve Scherf et al.
# Submitted via: Axialis_AX_CDPlayer 2.6
#
DISCID=c20c870e
DTITLE=Riccardo Fogli - Il Mondo Di Riccardo Fogli
DYEAR=1900
DGENRE=
TTITLE0=Monica
TTITLE1=Storie Di Tutti I Giorni
TTITLE2=Quando Una Lei Va Via
TTITLE3=Io Ti Prego Di Ascoltare
TTITLE4=In Silenzio
TTITLE5=Che Ne Sai
TTITLE6=L'Amore Che Verrà
TTITLE7=Romanzo
TTITLE8=Mondo
TTITLE9=Malinconia
TTITLE10=Alla Fine Di Un Lavoro
TTITLE11=Il Mare Che Ti Avevo Rubato
TTITLE12=Ti Amo Però.......
TTITLE13=Non Mi Lasciare
EXTD=
EXTT0=
EXTT1=
EXTT2=
EXTT3=
EXTT4=
EXTT5=
EXTT6=
EXTT7=
EXTT8=
EXTT9=
EXTT10=
EXTT11=
EXTT12=
EXTT13=
PLAYORDER=
